<?xml version="1.0" encoding="UTF-8" standalone="no"?>
<svg
   width="512"
   height="512"
   viewBox="0 0 512 512"
   fill="none"
   version="1.1"
   id="svg24"
   sodipodi:docname="eventon-apify-logo.svg"
   inkscape:version="1.3.2 (091e20e, 2023-11-25)"
   xmlns:inkscape="http://www.inkscape.org/namespaces/inkscape"
   xmlns:sodipodi="http://sodipodi.sourceforge.net/DTD/sodipodi-0.dtd"
   xmlns="http://www.w3.org/2000/svg"
   xmlns:svg="http://www.w3.org/2000/svg">
  <sodipodi:namedview
     id="namedview24"
     pagecolor="#ffffff"
     bordercolor="#666666"
     borderopacity="1.0"
     inkscape:showpageshadow="2"
     inkscape:pageopacity="0.0"
     inkscape:pagecheckerboard="0"
     inkscape:deskcolor="#d1d1d1"
     showguides="true"
     inkscape:zoom="0.8095652"
     inkscape:cx="268.66273"
     inkscape:cy="429.24276"
     inkscape:window-width="1736"
     inkscape:window-height="1102"
     inkscape:window-x="0"
     inkscape:window-y="39"
     inkscape:window-maximized="1"
     inkscape:current-layer="svg24">
    <sodipodi:guide
       position="126,293.30141"
       orientation="1,0"
       id="guide24"
       inkscape:locked="false" />
  </sodipodi:namedview>
  <defs
     id="defs4">
    <linearGradient
       id="eventonApifyLogoBg"
       x1="76"
       y1="64"
       x2="430"
       y2="440"
       gradientUnits="userSpaceOnUse">
      <stop
         stop-color="#FF7A45"
         id="stop1" />
      <stop
         offset="1"
         stop-color="#0F7AC9"
         id="stop2" />
    </linearGradient>
    <linearGradient
       id="eventonApifyLogoPanel"
       x1="136"
       y1="136"
       x2="376"
       y2="376"
       gradientUnits="userSpaceOnUse">
      <stop
         stop-color="#FFFFFF"
         id="stop3" />
      <stop
         offset="1"
         stop-color="#EAF2F8"
         id="stop4" />
    </linearGradient>
  </defs>
  <rect
     width="512"
     height="512"
     rx="96"
     fill="#F6F7F7"
     id="rect4" />
  <rect
     x="64"
     y="64"
     width="384"
     height="384"
     rx="88"
     fill="url(#eventonApifyLogoBg)"
     id="rect5" />
  <rect
     x="98"
     y="106"
     width="316"
     height="300"
     rx="48"
     fill="url(#eventonApifyLogoPanel)"
     id="rect6" />
  <rect
     x="98"
     y="106"
     width="316"
     height="72"
     rx="48"
     fill="#071C4D"
     id="rect7" />
  <rect
     x="98"
     y="142"
     width="316"
     height="36"
     fill="#071C4D"
     id="rect8" />
  <rect
     x="154"
     y="76"
     width="28"
     height="72"
     rx="14"
     fill="#F26C1F"
     id="rect9" />
  <rect
     x="330"
     y="76"
     width="28"
     height="72"
     rx="14"
     fill="#F26C1F"
     id="rect10" />
  <circle
     cx="204.5"
     cy="142"
     r="8"
     fill="#ffd3c2"
     id="circle10" />
  <circle
     cx="234.5"
     cy="142"
     r="8"
     fill="#ffe7a6"
     id="circle11" />
  <circle
     cx="264.5"
     cy="142"
     r="8"
     fill="#87e6c1"
     id="circle12" />
  <rect
     x="126"
     y="272.4537"
     width="92"
     height="20"
     rx="10"
     fill="#d6e4f0"
     id="rect12"
     style="stroke:#808080" />
  <rect
     x="126"
     y="208.69859"
     width="112"
     height="20"
     rx="10"
     fill="#d6e4f0"
     id="rect13"
     style="stroke:#808080" />
  <rect
     x="126"
     y="304.33127"
     width="98"
     height="20"
     rx="10"
     fill="#d6e4f0"
     id="rect15"
     style="stroke:#808080;fill:#b3b3b3" />
  <rect
     x="264.5"
     y="206"
     width="124"
     height="118"
     rx="28"
     fill="#071c4d"
     id="rect16" />
  <path
     d="m 304.5,241 c -7.333,5.333 -11,13 -11,23 0,10 3.667,17.667 11,23"
     stroke="#ffffff"
     stroke-width="10"
     stroke-linecap="round"
     stroke-linejoin="round"
     id="path16" />
  <path
     d="m 348.5,241 c 7.333,5.333 11,13 11,23 0,10 -3.667,17.667 -11,23"
     stroke="#ffffff"
     stroke-width="10"
     stroke-linecap="round"
     stroke-linejoin="round"
     id="path17" />
  <path
     d="m 332.5,236 -12,56"
     stroke="#60b3ff"
     stroke-width="10"
     stroke-linecap="round"
     id="path18" />
  <rect
     x="126"
     y="241.57616"
     width="80"
     height="18"
     rx="9"
     fill="#60b3ff"
     id="rect18"
     style="stroke:#808080" />
  <path
     id="circle18"
     d="M 92.417969 352 A 18 18 0 0 0 74.417969 370 A 18 18 0 0 0 92.417969 388 A 18 18 0 0 0 109.17969 376.43359 A 6.6801 6.6801 0 0 0 110.41797 376.67969 L 238.77539 376.67969 A 6.6801 6.6801 0 0 0 239.29102 376.57812 A 18 18 0 0 0 250 386.92383 L 250 438 A 6 6 0 0 0 250.13477 439.02539 A 18 18 0 0 0 238 456 A 18 18 0 0 0 256 474 A 18 18 0 0 0 274 456 A 18 18 0 0 0 261.86914 438.98828 A 6 6 0 0 0 262 438 L 262 386.92383 A 18 18 0 0 0 273.21875 375.21289 A 6 6 0 0 0 276.04102 376 L 376.95898 376 A 6 6 0 0 0 378.94141 375.64062 A 18 18 0 0 0 396 388 A 18 18 0 0 0 414 370 A 18 18 0 0 0 396 352 A 18 18 0 0 0 378.94531 364.34766 A 6 6 0 0 0 376.95898 364 L 276.04102 364 A 6 6 0 0 0 273.22656 364.7832 A 18 18 0 0 0 256 352 A 18 18 0 0 0 239.29102 363.42188 A 6.6801 6.6801 0 0 0 238.77539 363.32031 L 110.41797 363.32031 A 6.6801 6.6801 0 0 0 109.2207 363.55859 A 18 18 0 0 0 92.417969 352 z "
     style="fill:#ffffff;stroke:#000000" />
  <circle
     cx="92.418297"
     cy="370"
     r="8"
     fill="#f26c1f"
     id="circle22" />
  <circle
     cx="396"
     cy="370"
     r="8"
     fill="#F26C1F"
     id="circle23" />
  <circle
     cx="256"
     cy="456"
     r="8"
     fill="#0f7ac9"
     id="circle24" />
  <circle
     cx="256"
     cy="370"
     r="8"
     fill="#0f7ac9"
     id="circle24-3" />
</svg>
